PathFileType        4      (X/Y/Z)      C:\Users\pc\Desktop\IMUTRC\Sujet_02\Sujet_02_velo_60.trc         
DataRate	CameraRate	NumFrames	NumMarkers	Units	OrigDataRate	OrigDataStartFrame	OrigNumFrames
60.0	60.0	4	64	mm	60.0	1094	1250
Frame#	Time	pHipOrigin			pRightASI			pLeftASI			pRightCSI			pLeftCSI			pRightIschialTub			pLeftIschialTub			pSacrum			pL5SpinalProcess			pL3SpinalProcess			pT12SpinalProcess			pIJ			pT4SpinalProcess			pT8SpinalProcess			pPX			pC7SpinalProcess			pTopOfHead			pRightAuricularis			pLeftAuricularis			pBackOfHead			pRightAcromion			pLeftAcromion			pRightArmLatEpicondyle			pRightArmMedEpicondyle			pLeftArmLatEpicondyle			pLeftArmMedEpicondyle			pRightUlnarStyloid			pRightRadialStyloid			pRightOlecranon			pLeftUlnarStyloid			pLeftRadialStyloid			pLeftOlecranon			pRightTopOfHand			pRightPinky			pRightBallHand			pLeftTopOfHand			pLeftPinky			pLeftBallHand			pRightGreaterTrochanter			pRightKneeLatEpicondyle			pRightKneeMedEpicondyle			pRightPatella			pLeftGreaterTrochanter			pLeftKneeLatEpicondyle			pLeftKneeMedEpicondyle			pLeftPatella			pRightTibialTub			pRightLatMalleolus			pRightMedMalleolus			pLeftTibialTub			pLeftLatMalleolus			pLeftMedMalleolus			pRightHeelFoot			pRightFirstMetatarsal			pRightFifthMetatarsal			pRightPivotFoot			pRightHeelCenter			pRightToe			pLeftHeelFoot			pLeftFirstMetatarsal			pLeftFifthMetatarsal			pLeftPivotFoot			pLeftHeelCenter			pLeftToe			
		X1	Y1	Z1	X2	Y2	Z2	X3	Y3	Z3	X4	Y4	Z4	X5	Y5	Z5	X6	Y6	Z6	X7	Y7	Z7	X8	Y8	Z8	X9	Y9	Z9	X10	Y10	Z10	X11	Y11	Z11	X12	Y12	Z12	X13	Y13	Z13	X14	Y14	Z14	X15	Y15	Z15	X16	Y16	Z16	X17	Y17	Z17	X18	Y18	Z18	X19	Y19	Z19	X20	Y20	Z20	X21	Y21	Z21	X22	Y22	Z22	X23	Y23	Z23	X24	Y24	Z24	X25	Y25	Z25	X26	Y26	Z26	X27	Y27	Z27	X28	Y28	Z28	X29	Y29	Z29	X30	Y30	Z30	X31	Y31	Z31	X32	Y32	Z32	X33	Y33	Z33	X34	Y34	Z34	X35	Y35	Z35	X36	Y36	Z36	X37	Y37	Z37	X38	Y38	Z38	X39	Y39	Z39	X40	Y40	Z40	X41	Y41	Z41	X42	Y42	Z42	X43	Y43	Z43	X44	Y44	Z44	X45	Y45	Z45	X46	Y46	Z46	X47	Y47	Z47	X48	Y48	Z48	X49	Y49	Z49	X50	Y50	Z50	X51	Y51	Z51	X52	Y52	Z52	X53	Y53	Z53	X54	Y54	Z54	X55	Y55	Z55	X56	Y56	Z56	X57	Y57	Z57	X58	Y58	Z58	X59	Y59	Z59	X60	Y60	Z60	X61	Y61	Z61	X62	Y62	Z62	X63	Y63	Z63	X64	Y64	Z64	
1094	18.217	0.0	1250.02827	7.654215598496017E-14	46.99011000000001	1369.67057	143.30844000000008	44.53795999999999	1367.56058	-145.76059999999993	-15.283189999999992	1428.18011	117.30420000000008	-17.279130000000006	1426.4693	-119.58527999999991	-43.73957999999999	1178.34553	60.10629000000007	-44.766070000000006	1177.49013	-58.33844999999993	-74.30597	1256.07311	0.5702700000000815	-56.17143	1373.66245	0.17108000000008755	-12.88807	1487.83018	6.672140000000092	38.60717	1587.1139	15.568330000000095	301.27278	1621.90027	27.71504000000008	183.68344	1727.39992	36.26907000000009	108.23694	1672.14092	26.460450000000098	201.47582	1542.17675	13.971580000000081	236.31921	1760.36143	43.39742000000009	475.66085	1765.09466	61.13277000000008	384.70304	1736.80935	113.88259000000006	394.73977	1766.00709	-11.747529999999916	380.82522	1800.28022	61.760060000000095	193.66314000000003	1700.93947	238.2011000000001	230.16031	1742.79717	-166.1191799999999	263.69209	1416.37555	285.5333700000001	224.85682000000003	1392.99455	239.22758000000007	314.95922	1448.65274	-152.48975999999993	271.21964	1433.42658	-107.15342999999993	366.68256	1161.75072	357.33016000000003	406.77243	1173.61231	316.32786000000004	222.17656000000002	1406.33883	282.6820300000001	446.17797	1201.72654	-179.86263999999994	477.88489	1220.37431	-134.29819999999995	274.69827	1438.7871	-153.85840999999994	554.52896	1083.56693	342.04697	469.27384	1096.16986	371.18768	407.22864	1134.37784	346.20993000000004	635.10788	1175.66527	-92.15536999999998	565.25001	1161.75072	-148.84003999999993	491.62836	1184.04822	-152.60381999999996	21.670200000000012	1226.76132	175.81374000000008	268.71046	853.8058	145.07627000000002	268.19721	852.55121	58.45251000000003	306.86141	882.71841	98.25724000000004	45.963629999999995	1232.74914	-167.77294999999992	456.95605	1097.65256	-50.012539999999966	442.30015	1104.78091	35.01448000000004	461.40414	1148.34942	-6.501059999999958	312.84923	802.93787	98.31427000000002	105.27154	423.93751	88.44862000000003	111.25936	428.61371	20.472630000000017	488.49189	1054.08406	-5.189439999999966	284.67797	687.6296	-110.17584999999997	274.52719	680.38719	-42.88417999999997	11.462390000000001	346.43803	25.77613000000002	172.10699	253.94051	11.063210000000005	152.54679	247.04026	96.48941	183.39831	237.40272	56.34251	46.99011	322.7719	32.04908000000002	254.28267	193.94827	69.0595	178.26589	604.59853	-75.10433999999997	333.03673	505.25778	-47.560379999999995	327.67621	510.44722	-135.1536	351.39937	494.4797	-92.2124	214.02172	580.64725	-78.69703999999997	422.73994	450.56904	-99.2267	
1095	18.233	0.0	1250.02827	7.654215598496017E-14	47.21822000000001	1369.61354	143.25141000000008	44.65200999999999	1367.50355	-145.76059999999993	-14.998059999999994	1428.23713	117.30420000000008	-17.108050000000006	1426.4693	-119.58527999999991	-43.796609999999994	1178.40256	60.163310000000074	-44.880120000000005	1177.54716	-58.28142999999993	-74.30597	1256.18717	0.6273000000000815	-56.05738	1373.71948	0.22811000000008758	-12.65996	1487.8872	6.672140000000092	38.77825	1587.17093	15.511300000000096	301.50089	1622.01433	27.486940000000082	183.85452	1727.45695	36.097990000000095	108.40802	1672.14092	26.346400000000095	201.76095	1542.23378	13.85752000000008	236.49029	1760.41846	43.16932000000009	475.88895	1765.03763	60.50547000000008	384.98818	1736.86638	113.48341000000008	394.79679	1766.06412	-12.146719999999917	381.11035	1800.33724	61.360880000000094	194.23341000000002	1701.39568	238.03002000000012	230.44545	1742.85419	-166.29025999999988	264.26236	1416.77474	285.5333700000001	225.37006000000002	1393.39374	239.28461000000007	315.41544	1448.70977	-152.43273999999994	271.67585	1433.54063	-107.09639999999993	367.02472	1162.03586	357.38719000000003	407.11459	1173.84041	316.32786000000004	222.68980000000002	1406.79504	282.79608000000013	446.63419	1201.89762	-179.97669999999994	478.39814	1220.54539	-134.41224999999994	275.09746	1438.90115	-153.80137999999994	554.87112	1083.79504	342.04697	469.616	1096.455	371.18768	407.5708	1134.66298	346.26695000000007	635.5641	1175.55122	-92.32644999999997	565.70622	1161.80775	-148.95409999999995	492.08458	1184.16227	-152.71786999999995	22.06939000000001	1227.55969	175.9848200000001	276.58016	859.50849	147.52843000000001	276.29503	857.85471	60.96169000000003	314.2749	888.99136	100.65237000000005	45.22227999999999	1231.83671	-168.0010599999999	454.33281	1089.26961	-52.35063999999996	440.19015	1096.74013	32.790430000000036	459.86441	1139.90945	-8.89618999999996	318.72299	807.21488	100.65237000000003	97.40184	436.19828	86.16755000000003	104.07398	441.15961	18.24859000000002	487.80756	1046.78462	-6.900249999999966	294.14443	673.601	-107.32450999999998	284.16473	666.92886	-39.91878999999997	1.1405400000000014	362.46258	23.20992000000002	158.42055	264.43344	8.040780000000007	138.63224	257.81833	93.40996	169.1416	247.26837	53.20604000000001	35.86988	337.54185	29.311790000000016	238.42921	201.24771	65.69492	191.49612	586.34994	-72.13894999999997	350.54397	494.30862	-43.454449999999994	345.24047	498.75672	-131.1047	369.5339	484.10082	-87.99241	228.33546	564.10947	-75.44650999999999	442.81339	443.49771	-94.49347	
1096	18.25	0.0	1250.02827	7.654215598496017E-14	47.44633000000001	1369.61354	143.19439000000008	44.709039999999995	1367.3895	-145.81761999999992	-14.712919999999993	1428.29416	117.24718000000009	-16.936970000000006	1426.4693	-119.64229999999992	-43.91065999999999	1178.45959	60.163310000000074	-44.994170000000004	1177.54716	-58.28142999999993	-74.30597	1256.30122	0.6273000000000815	-55.8863	1373.7765	0.17108000000008755	-12.48888	1487.8872	6.615110000000092	38.94933	1587.17093	15.454270000000095	301.67197	1622.12838	27.42991000000008	183.91155	1727.51397	36.04096000000009	108.5791	1672.19794	26.289370000000098	201.98906	1542.29081	13.743470000000082	236.54732	1760.58954	43.112290000000094	476.06004	1765.09466	60.049260000000075	385.27331	1736.9234	113.19827000000006	394.73977	1766.12114	-12.431849999999917	381.28143	1800.4513	61.075740000000096	194.74665000000002	1701.73784	237.97299000000012	230.78761	1743.02527	-166.29025999999988	264.71858	1417.1169	285.5904000000001	225.76925000000003	1393.67887	239.3986600000001	315.87165	1448.88085	-152.43273999999994	272.18909	1433.71171	-107.03936999999993	367.36688	1162.32099	357.33016000000003	407.45675	1174.06852	316.2708400000001	223.14601000000002	1407.08018	282.85311000000013	447.0904	1202.12572	-180.14777999999995	478.85435	1220.71647	-134.58333999999994	275.55368	1439.12926	-153.74434999999994	555.21329	1084.02314	341.93291	469.95816	1096.62608	371.07363	407.91297	1134.89108	346.15290000000005	635.96329	1175.60825	-92.49752999999997	566.10541	1161.9218	-149.18220999999994	492.54079	1184.33335	-152.94597999999993	22.52560000000001	1228.52915	176.1559000000001	285.19121	866.06657	150.26572000000002	285.07716	863.89955	63.64195000000004	322.25866	896.06269	103.21858000000005	44.366879999999995	1230.69617	-168.28619999999992	450.9112	1079.28992	-55.03089999999997	437.50989	1087.21665	30.16720000000004	457.9255	1129.87272	-11.69049999999996	325.28108	812.40432	103.16155000000005	91.01483	449.71364	84.17161000000003	98.31427	454.96011	16.366700000000023	486.32487	1038.00249	-8.953209999999967	302.5844	658.65997	-104.75829999999998	292.88983	652.50107	-37.29554999999998	-7.527539999999999	379.68468	20.928850000000025	146.27384	276.35205	5.246470000000008	126.25742	270.02207	90.61564	156.42461	258.61671	50.297670000000004	26.28937	353.50936	26.91667000000002	224.05844	210.20092	62.55844	203.52878	567.81622	-69.45868999999999	366.05527	482.39001	-39.74770999999999	360.92285	486.21081	-127.39795	385.61547	472.75248	-84.17161	241.28055	547.00142	-72.53813999999998	460.54874	435.05774	-90.15943	
1097	18.267	0.0	1250.02827	7.654215598496017E-14	47.61741000000001	1369.61354	143.0803300000001	44.82308999999999	1367.27544	-145.93167999999991	-14.427789999999993	1428.35119	117.13312000000009	-16.765890000000006	1426.41227	-119.75635999999992	-43.96768999999999	1178.57364	60.27737000000007	-45.108230000000006	1177.60418	-58.16736999999993	-74.24894	1256.35825	0.6843200000000815	-55.77225	1373.83353	0.11405000000008754	-12.3178	1487.8872	6.558090000000092	39.12041	1587.17093	15.397250000000096	301.78602	1622.35649	27.42991000000008	183.96858	1727.62803	36.097990000000095	108.63612	1672.19794	26.289370000000098	202.16014	1542.46189	13.686440000000081	236.60435	1760.70359	43.22634000000009	476.11706	1765.15169	59.707100000000075	385.44439	1737.09448	113.14124000000007	394.62571	1766.2352	-12.545899999999916	381.39549	1800.56535	61.018720000000094	195.03178000000003	1701.8519	238.03002000000012	231.07274	1743.25338	-166.23322999999988	265.11777	1417.28798	285.5904000000001	226.11141000000003	1393.84995	239.3986600000001	316.38489	1449.22301	-152.37570999999994	272.70233	1433.93982	-107.03936999999993	367.8231	1162.43505	357.1590800000001	407.85594	1174.18257	316.09976000000006	223.54520000000002	1407.25126	282.9101400000001	447.48959	1202.41086	-180.48993999999993	479.25354	1220.88755	-134.92549999999994	276.06692	1439.41439	-153.68732999999995	555.72653	1084.25125	341.70481	470.47141	1096.79716	370.90255	408.36918	1135.00514	345.9818200000001	636.36247	1175.66527	-92.83968999999998	566.44757	1162.03586	-149.52436999999995	492.88295	1184.56146	-153.28813999999994	23.095870000000012	1229.78374	176.32698000000008	294.48659	873.59412	153.23111000000003	294.48659	870.7998	66.66437000000005	330.86971	904.1605	106.01289000000004	43.22633999999999	1229.15645	-168.5713299999999	446.69121	1067.82752	-57.996289999999966	434.25936	1076.4956	27.315850000000044	455.35929	1118.41033	-14.941029999999959	332.58051	818.7343	105.84181000000004	85.99647	464.48359	82.46081000000002	93.98023	469.95816	14.712920000000024	484.15785	1027.85171	-11.348339999999968	310.16897	642.86353	-102.53424999999997	300.70251	637.21788	-35.014479999999985	-14.541839999999999	398.16138	18.989940000000026	135.72387	289.86741	2.6802600000000094	115.5934	283.76554	88.04944000000002	145.30438	271.5618	47.674440000000004	18.36264	370.84552	24.80667000000002	211.28443	220.86494	59.65007	214.24983	549.11141	-67.17760999999999	379.39955	469.3879	-36.440149999999996	374.55227	472.63843	-124.14742	399.47299	460.20657	-80.75	252.62889	529.55121	-70.02895999999998	475.71787	425.02102	-86.2816	
